PathFileType	4	(X/Y/Z)	Patient4_TMGait_0pt8_01_right_14.trc.trc
DataRate	CameraRate	NumFrames	NumMarkers	Units	OrigDataRate	OrigDataStartFrame	OrigNumFrames
90.322580645161	90.322580645161	6	33	mm	90.322580645161	36	       141
Frame#	Time	Sacral			L.Shoulder			Chest			R.Shoulder			Neck			R.ASIS			L.ASIS			R.Thigh.Superior			R.Thigh.Lateral			R.Thigh.Inferior			R.Patella			L.Thigh.Superior			L.Thigh.Lateral			L.Thigh.Inferior			L.Patella			L.Shank.Superior			L.Shank.Lateral			L.Shank.Inferior			R.Shank.Superior			R.Shank.Lateral			R.Shank.Inferior			R.Heel			R.Midfoot.Superior			R.Midfoot.Lateral			R.Toe			L.Heel			L.Midfoot.Lateral			L.Midfoot.Superior			L.Toe			L.Elbow			L.Wrist			R.Elbow			R.Wrist			
		X1	Y1	Z1	X2	Y2	Z2	X3	Y3	Z3	X4	Y4	Z4	X5	Y5	Z5	X6	Y6	Z6	X7	Y7	Z7	X8	Y8	Z8	X9	Y9	Z9	X10	Y10	Z10	X11	Y11	Z11	X12	Y12	Z12	X13	Y13	Z13	X14	Y14	Z14	X15	Y15	Z15	X16	Y16	Z16	X17	Y17	Z17	X18	Y18	Z18	X19	Y19	Z19	X20	Y20	Z20	X21	Y21	Z21	X22	Y22	Z22	X23	Y23	Z23	X24	Y24	Z24	X25	Y25	Z25	X26	Y26	Z26	X27	Y27	Z27	X28	Y28	Z28	X29	Y29	Z29	X30	Y30	Z30	X31	Y31	Z31	X32	Y32	Z32	X33	Y33	Z33	

36	15.847500000000	913.993077161321	987.675573726668	469.346275393251	1082.096806649518	1426.822786895431	296.794553569106	1180.979702872410	1357.097092192660	460.093109260839	1087.282299540043	1422.243162102673	632.345595459843	1058.084638211356	1482.123672379492	452.926215124265	1145.638040290395	930.704489343657	587.743533933730	1126.171022418346	952.477653400907	311.568561633176	1218.952028331911	752.296544613419	559.840150978674	1156.531084384563	630.827209222489	619.956552418806	1247.401271306126	592.306639312808	545.826775125626	1264.494637772267	501.629941370415	554.377628434856	1145.563596699370	721.915144422039	329.758206188778	1039.172390100907	617.419825613922	269.361088673562	1118.183029966192	523.478415324726	321.446174809270	1101.403394338740	440.527042111633	319.284644280632	1030.546547210319	387.043570692258	317.059661098144	886.552700544098	346.805189351691	276.085973271183	874.712372811322	219.272537494332	334.782511093621	1239.373821803443	409.327888717198	558.787196478378	1170.954488750323	301.384228343798	617.720293383282	1221.407178040166	209.219713314849	556.497564435240	1095.346011247479	42.508789020039	520.275606868034	1265.372667870391	98.016388887282	561.643399275268	1176.650515240418	37.163958561614	598.037809928170	1384.586918672551	47.935370715165	592.502100156882	686.382759316106	148.799594159537	386.210398439876	739.762865943697	107.094220286868	301.643905204621	844.696273023362	123.824740415961	315.349473583113	927.677836406828	32.455167158070	280.854453905584	1146.409238302400	1099.212716930212	145.206346533384	1396.643313793333	1116.445738526033	187.010084423878	942.417111942517	1108.415539858853	731.843311919399	892.468845449576	853.711030727310	747.802487769080	
37	15.858571428571	914.636301378213	989.619088093662	472.480140186864	1081.342327066549	1428.798439186718	298.771940111280	1181.858207644774	1358.849096561018	461.044008052970	1089.803985483300	1423.872769776724	634.129376211074	1058.775352388712	1483.857593292680	455.018006403390	1146.863679825843	932.602381997409	589.319738089471	1125.652349180788	954.542528069044	312.417444339055	1217.748372026796	751.478277474127	563.184102959955	1152.653404059772	631.055260745997	621.626162388813	1243.245663064697	591.407580459279	547.642887238691	1258.930762339937	500.772105698328	555.596476426583	1150.792209927477	724.703254229304	331.674489388262	1048.333069816336	617.575183130189	270.511031003639	1130.190568831205	525.276295452229	322.514324646416	1114.329713209800	441.138446869158	319.820556948838	1041.476398732837	388.016211412058	317.713356174170	895.983269222786	353.071825598442	276.894657315846	879.673859513960	226.036673231488	335.332372177944	1232.988807594836	408.868482542660	559.972858880243	1163.646039249362	301.343290963746	618.392647603049	1213.509621798275	208.945894039720	557.090003632337	1086.656389840182	42.475280504374	520.510069707033	1256.772893962298	98.190521403684	562.116386081291	1167.927581118687	37.190225760570	598.258048531181	1375.851958400776	47.957496141965	592.868048691064	688.626992975876	164.490740682050	386.635575418566	739.924471944687	120.104137224328	301.945190907262	845.926753499273	130.766081989379	315.711261389839	923.125990350202	32.776099592960	280.898978954833	1139.201356868391	1098.272881619714	149.778655230231	1390.394208470939	1106.419564220190	189.966283521660	951.027265439848	1106.548412959544	734.711456998518	908.754416593686	850.393470841265	749.950499618459	
38	15.869642857143	915.053824835849	991.576180393520	475.552108834442	1080.233939144139	1430.722795100586	300.659898098362	1182.570197992326	1360.533161032048	461.762566407400	1092.382587985099	1425.407305304087	635.795442905818	1059.337842621378	1485.541882620170	457.038991145156	1147.898455268727	934.418674386807	590.657938146990	1124.848240205243	956.536860270868	313.020834546991	1216.086096740810	750.527651700983	566.171810824741	1148.460979007544	631.254650372231	623.089584495798	1238.573244051559	590.460567299254	549.066992416838	1252.812702193085	499.902817189599	556.488984729267	1155.887683599633	727.814097458113	333.566325641490	1057.505835436217	618.150641732346	271.553527548522	1142.088499754181	527.651913527824	323.658136013137	1127.365470116885	442.396688453727	320.531175674197	1052.790650675620	389.492176091587	318.437828368706	906.075338824524	359.396328576849	277.764780042021	885.671994888833	232.929664277688	336.006535733352	1226.171090090575	408.437048713509	560.909764510766	1156.099766135866	301.283156418320	618.865721129995	1205.449107295113	208.695297252504	557.531748698570	1077.944397540896	42.477390684906	520.698582833874	1248.179690564330	98.339928395199	562.505735677860	1159.186478245791	37.211919346130	598.419490497975	1367.113026784879	47.838708842617	593.171850404667	692.490976870551	179.435808767600	387.260678866345	741.825155787764	132.902474373350	302.375801014971	848.570846483787	138.073882275942	316.239378393921	920.446338679653	33.831375364761	280.871270098068	1131.662795819978	1097.443101470161	154.323854277365	1383.558547871292	1095.188766144136	192.783729344808	960.040499500975	1104.647575602371	737.637900144138	926.272361876769	847.121238370801	752.024660736024	
39	15.880714285714	915.262340647655	993.510204744933	478.552132330600	1078.819145728053	1432.553513260432	302.441735774290	1183.116201835980	1362.114498404324	462.255211985374	1094.993736400689	1426.823748056012	637.332286169961	1059.787356860883	1487.160317515790	458.964669139033	1148.749210184077	936.131979224591	591.775873612291	1123.797229087609	958.367485464520	313.500923456145	1214.035183520250	749.542074188660	568.661373607510	1144.141721257255	631.474461458084	624.365352760886	1233.531080486412	589.516797823300	550.094169513614	1246.289747737159	499.056269067320	557.091840528427	1160.740100701542	731.248804699346	335.429842543166	1066.534978297436	619.196433975073	272.486346093194	1153.717567033914	530.634638062991	324.811008895670	1140.366429915843	444.333512383790	321.293627946686	1064.370942894675	391.484147309652	319.146168558312	916.684690982027	365.626916231513	278.659317975339	892.746775916704	239.716160450414	336.732953115923	1219.064636643513	408.045293357709	561.606463270839	1148.440504635466	301.232549949507	619.187491825453	1197.285019063763	208.470349668081	557.828522097817	1069.193660028093	42.523100240531	520.852310613183	1239.572242355622	98.461366239637	562.812343264898	1150.411732579001	37.234508479064	598.534467581325	1358.357430719674	47.578307950647	593.419603653189	698.001477545226	193.060969365171	388.054524913230	745.576780519178	144.929793495451	302.915982359380	852.778988592241	145.428777704704	316.857195786412	920.022298948770	35.670187215691	280.760320606405	1123.879013428816	1096.686863108935	158.813288043862	1376.055618686925	1082.787636954767	195.437772932346	969.477625993659	1102.696564543084	740.591824263171	944.951044211655	843.966704721185	753.990519961560	
40	15.891785714286	915.288097414316	995.388210867566	481.480240148307	1077.152083550730	1434.260760963889	304.104992200440	1183.497666736984	1363.571640892386	462.537524711170	1097.604883481798	1428.117019982350	638.729727398403	1060.135542995457	1488.704435831606	460.771388608036	1149.427694474720	937.730679546207	592.700460982047	1122.547624538787	959.962447948726	313.996381752857	1211.677084578563	748.603329887929	570.568246750113	1139.829407843305	631.741114268079	625.476770855652	1228.246785318564	588.610302861850	550.752534045146	1239.494497309327	498.257175811049	557.449365362363	1165.268731547702	735.002323834520	337.248986032827	1075.292761865186	620.738976738026	273.302405339969	1164.959401751025	534.231901933476	325.887521001203	1153.216823241494	446.964122841009	321.973117521861	1076.129349046762	393.980944590504	319.746763224545	927.693460110743	371.594961096899	279.526610286524	900.944615752909	246.150273682122	337.435854822475	1211.794327457974	407.699979407618	562.089639091142	1140.757584409819	301.212563139364	619.403921315452	1189.067036884629	208.273582727605	557.999594930157	1060.400260617097	42.614006872040	520.981344022016	1230.932084598134	98.549480049128	563.040986949328	1141.599871280783	37.263250022986	598.614876653154	1349.580434825548	47.196531644790	593.621347076914	705.161073051631	204.856453691730	388.971483028617	751.254792534226	155.662396092482	303.533366580777	858.688798082081	152.482227559908	317.484919920340	922.184559964712	38.228419050652	280.557838188999	1115.928334630170	1095.973602068757	163.228638135909	1367.791154054581	1069.260303449614	197.904076627194	979.370904063480	1100.690142634929	743.539132499519	964.734933766055	841.012094067783	755.812695276101	
41	15.902857142857	915.163294529442	997.180369810102	484.342733305018	1075.286661756107	1435.824449997212	305.642533902086	1183.716901075277	1364.894208051843	462.632626556480	1100.178583402008	1429.295437553451	639.979976628939	1060.389304397416	1490.169032771615	462.439336152950	1149.948741737261	939.209658089142	593.462909702328	1121.149471119536	961.284189679599	314.635129304677	1209.096048423409	747.767462181811	571.873790297603	1135.601081051387	632.059590856054	626.447059385785	1222.822385436104	587.758617425402	551.094726975778	1232.537547387918	497.519582256498	557.607264649738	1169.424750399363	739.059890426609	338.995455805123	1083.681918690351	622.777870360399	273.992523649521	1175.733398099042	538.426593989589	326.797824638665	1165.826580868868	450.283949254300	322.447625133500	1088.003866916926	396.947407680211	320.158996739945	939.010793994282	377.125926410896	280.309016767964	910.304983004660	251.994561898227	338.045503098044	1204.460448538784	407.402273756233	562.396056045545	1133.107906839589	301.235061519563	619.555241836033	1180.834188707163	208.106132147458	558.071636334586	1051.568806203141	42.746836584262	521.093129326025	1222.245160806376	98.595349637310	563.200628761852	1132.755879735830	37.301988826609	598.670762800424	1340.783427181001	46.724199343086	593.787986212558	713.949060923642	214.411019110110	389.954570295089	758.894656700726	164.654775589032	304.184529152832	866.408064673414	158.889297645057	318.048201106001	927.177626020049	41.326094597608	280.254852911204	1107.880601839754	1095.279686593350	167.560109143944	1358.659939876930	1054.670044945206	200.160993273242	989.752583777384	1098.639529762276	746.443488436660	985.578422798326	838.352938294599	757.456044784746	
